<?xml version="1.0" encoding="utf-8"?>
<!-- Generator: Adobe Illustrator 19.2.0, SVG Export Plug-In . SVG Version: 6.00 Build 0)  -->
<svg version="1.1" id="Layer_1" xmlns="http://www.w3.org/2000/svg" xmlns:xlink="http://www.w3.org/1999/xlink" x="0px" y="0px"
	 viewBox="0 0 600 600" style="enable-background:new 0 0 600 600;" xml:space="preserve">
<style type="text/css">
	.st0{fill:none;stroke:#F16667;stroke-width:10;stroke-linejoin:round;stroke-miterlimit:10;}
	.st1{fill:none;stroke:#F16667;stroke-width:10;stroke-linecap:round;stroke-linejoin:round;stroke-miterlimit:10;}
	.st2{fill:#F16667;}
	.st3{fill:none;stroke:#F16667;stroke-width:11.7245;stroke-linejoin:round;stroke-miterlimit:10;}
</style>
<g>
	<path class="st0" d="M355.7,367H244.3c-6.2,0-11.3-5.1-11.3-11.3V244.3c0-6.2,5.1-11.3,11.3-11.3h111.4c6.2,0,11.3,5.1,11.3,11.3
		v111.4C367,361.9,361.9,367,355.7,367z"/>
	<path class="st0" d="M321.6,332.9h-43.2c-6.2,0-11.3-5.1-11.3-11.3v-43.2c0-6.2,5.1-11.3,11.3-11.3h43.2c6.2,0,11.3,5.1,11.3,11.3
		v43.2C332.9,327.9,327.9,332.9,321.6,332.9z"/>
	<line class="st1" x1="204.3" y1="267.1" x2="233" y2="267.1"/>
	<line class="st1" x1="204.3" y1="300" x2="233" y2="300"/>
	<line class="st1" x1="204.3" y1="332.9" x2="233" y2="332.9"/>
	<line class="st1" x1="367" y1="267.1" x2="395.7" y2="267.1"/>
	<line class="st1" x1="367" y1="300" x2="395.7" y2="300"/>
	<line class="st1" x1="367" y1="332.9" x2="395.7" y2="332.9"/>
	<line class="st1" x1="332.9" y1="204.3" x2="332.9" y2="233"/>
	<line class="st1" x1="300" y1="204.3" x2="300" y2="233"/>
	<line class="st1" x1="267.1" y1="204.3" x2="267.1" y2="233"/>
	<line class="st1" x1="332.9" y1="367" x2="332.9" y2="395.7"/>
	<line class="st1" x1="300" y1="367" x2="300" y2="395.7"/>
	<line class="st1" x1="267.1" y1="367" x2="267.1" y2="395.7"/>
</g>
</svg>
