<svg id="Layer_1" data-name="Layer 1" xmlns="http://www.w3.org/2000/svg" viewBox="0 0 600 600"><defs><style>.cls-1{fill:#f16667;}</style></defs><title>landing-page-graphics</title><path class="cls-1" d="M377,193.28A16.28,16.28,0,0,0,360.72,177H239.28A16.28,16.28,0,0,0,223,193.28V407.72A16.28,16.28,0,0,0,239.28,424H360.72A16.28,16.28,0,0,0,377,407.72V193.28ZM367,407.72a6.28,6.28,0,0,1-6.28,6.28H239.28a6.28,6.28,0,0,1-6.28-6.28V193.28a6.28,6.28,0,0,1,6.28-6.28H360.72a6.28,6.28,0,0,1,6.28,6.28V407.72Z"/><path class="cls-1" d="M300,376a14.74,14.74,0,1,0,14.74,14.74A14.75,14.75,0,0,0,300,376Zm0,19.48a4.74,4.74,0,1,1,4.74-4.74A4.74,4.74,0,0,1,300,395.43Z"/><circle class="cls-1" cx="300" cy="200.25" r="5.18"/></svg>