<svg id="Layer_1" data-name="Layer 1" xmlns="http://www.w3.org/2000/svg" viewBox="0 0 600 600"><defs><style>.cls-1{fill:#f16667;}</style></defs><title>landing-page-graphics</title><path class="cls-1" d="M375.36,194a5,5,0,0,0,0-10H353v-4.89c0-9.45-8.14-17.11-17.59-17.11H264.59c-9.45,0-17.59,7.66-17.59,17.11V184H224.64a5,5,0,1,0,0,10H247v21H224.64a5,5,0,1,0,0,10H247v22H224.64a5,5,0,1,0,0,10H247v22H224.64a5,5,0,1,0,0,10H247v22H224.64a5,5,0,1,0,0,10H247v22H224.64a5,5,0,1,0,0,10H247v22H224.64a5,5,0,1,0,0,10H247v22H224.64a5,5,0,1,0,0,10H247v3.89c0,9.45,8.14,17.11,17.59,17.11h70.82c9.45,0,17.59-7.66,17.59-17.11V417h22.36a5,5,0,0,0,0-10H353V385h22.36a5,5,0,0,0,0-10H353V353h22.36a5,5,0,0,0,0-10H353V321h22.36a5,5,0,0,0,0-10H353V289h22.36a5,5,0,0,0,0-10H353V257h22.36a5,5,0,0,0,0-10H353V225h22.36a5,5,0,0,0,0-10H353V194h22.36ZM341,421.59a5.41,5.41,0,0,1-5.41,5.41H264.41a5.41,5.41,0,0,1-5.41-5.41V179.41a5.41,5.41,0,0,1,5.41-5.41h71.17a5.41,5.41,0,0,1,5.41,5.41V421.59Z"/><path class="cls-1" d="M283,183.5a5,5,0,0,0-5,5v95.57a5,5,0,1,0,10,0V188.5A5,5,0,0,0,283,183.5Z"/></svg>