<?xml version="1.0" encoding="utf-8"?>
<!-- Generator: Adobe Illustrator 19.2.0, SVG Export Plug-In . SVG Version: 6.00 Build 0)  -->
<svg version="1.1" id="Layer_1" xmlns="http://www.w3.org/2000/svg" xmlns:xlink="http://www.w3.org/1999/xlink" x="0px" y="0px"
	 viewBox="0 0 600 600" style="enable-background:new 0 0 600 600;" xml:space="preserve">
<style type="text/css">
	.st0{fill:none;stroke:#F16667;stroke-width:10;stroke-linejoin:round;stroke-miterlimit:10;}
	.st1{fill:none;stroke:#F16667;stroke-width:10;stroke-linecap:round;stroke-linejoin:round;stroke-miterlimit:10;}
	.st2{fill:#F16667;}
	.st3{fill:none;stroke:#F16667;stroke-width:11.7245;stroke-linejoin:round;stroke-miterlimit:10;}
</style>
<g>
	<path class="st3" d="M335.4,432.2h-70.8c-6.2,0-11.3-5-11.3-11.3V179.1c0-6.2,5-11.3,11.3-11.3h70.8c6.2,0,11.3,5,11.3,11.3v241.8
		C346.7,427.1,341.6,432.2,335.4,432.2z"/>
	<line class="st1" x1="346.7" y1="188.5" x2="375.4" y2="188.5"/>
	<line class="st1" x1="346.7" y1="220.4" x2="375.4" y2="220.4"/>
	<line class="st1" x1="346.7" y1="252.2" x2="375.4" y2="252.2"/>
	<line class="st1" x1="346.7" y1="284.1" x2="375.4" y2="284.1"/>
	<line class="st1" x1="346.7" y1="315.9" x2="375.4" y2="315.9"/>
	<line class="st1" x1="346.7" y1="347.8" x2="375.4" y2="347.8"/>
	<line class="st1" x1="346.7" y1="379.6" x2="375.4" y2="379.6"/>
	<line class="st1" x1="346.7" y1="411.5" x2="375.4" y2="411.5"/>
	<g>
		<line class="st1" x1="224.6" y1="188.5" x2="253.3" y2="188.5"/>
		<line class="st1" x1="224.6" y1="220.4" x2="253.3" y2="220.4"/>
		<line class="st1" x1="224.6" y1="252.2" x2="253.3" y2="252.2"/>
		<line class="st1" x1="224.6" y1="284.1" x2="253.3" y2="284.1"/>
		<line class="st1" x1="224.6" y1="315.9" x2="253.3" y2="315.9"/>
		<line class="st1" x1="224.6" y1="347.8" x2="253.3" y2="347.8"/>
		<line class="st1" x1="224.6" y1="379.6" x2="253.3" y2="379.6"/>
		<line class="st1" x1="224.6" y1="411.5" x2="253.3" y2="411.5"/>
	</g>
	<line class="st1" x1="283.2" y1="188.5" x2="283.2" y2="284.1"/>
</g>
</svg>
