<svg id="Layer_1" data-name="Layer 1" xmlns="http://www.w3.org/2000/svg" viewBox="0 0 600 600"><defs><style>.cls-1{fill:#f16667;}</style></defs><title>landing-page-graphics</title><path class="cls-1" d="M413.07,200H186.93A15.94,15.94,0,0,0,171,216.21V349.79A15.94,15.94,0,0,0,186.93,366h83.64l-8.11,27.62a5,5,0,0,0,4.8,6.38h65.5a5,5,0,0,0,4-2,5,5,0,0,0,.79-4.42L329.43,366h83.64A15.94,15.94,0,0,0,429,349.79V216.21A15.94,15.94,0,0,0,413.07,200Zm-87,190H273.93L281,366h38ZM419,349.79a5.94,5.94,0,0,1-5.93,6.21H186.93a5.94,5.94,0,0,1-5.93-6.21V216.21a5.94,5.94,0,0,1,5.93-6.21H413.07a5.94,5.94,0,0,1,5.93,6.21V349.79Z"/><circle class="cls-1" cx="300" cy="341.98" r="5.18"/></svg>