<svg id="Layer_1" data-name="Layer 1" xmlns="http://www.w3.org/2000/svg" viewBox="0 0 600 600"><defs><style>.cls-1{fill:#f16667;}</style></defs><title>landing-page-graphics</title><path class="cls-1" d="M456.15,260.71c-1.06-2.19-2.26-4.58-3.58-7.72a4.92,4.92,0,0,0-4.61-3H434V226.17a5,5,0,1,0-10,0V250H402V226.17a5,5,0,1,0-10,0V250H378.67a4.92,4.92,0,0,0-4.61,3c-1.32,3.15-2.52,5.58-3.58,7.76-2.42,5-4.17,8.57-3.33,13a47,47,0,0,0,41,37.83,62.07,62.07,0,0,1-61.8,57.29c-29.23,0-49.58-20.75-62.2-63.39-13.33-46.2-38.16-70.61-71.8-70.61a72.08,72.08,0,0,0-72,72,5,5,0,0,0,10,0,62.07,62.07,0,0,1,62-62c29.13,0,50.06,21.33,62.21,63.42,13.86,46.83,38,70.58,71.79,70.58a72.08,72.08,0,0,0,71.83-67.26,47,47,0,0,0,41.34-37.88C460.32,269.3,458.57,265.7,456.15,260.71Zm-6.5,11.11a37,37,0,0,1-72.68,0c-0.22-1.14.92-3.41,2.5-6.67,0.72-1.48,1.56-3.15,2.47-5.15h62.74c0.91,2,1.75,3.67,2.47,5.16C448.73,268.41,449.87,270.68,449.66,271.82Z"/></svg>