<svg id="Layer_1" data-name="Layer 1" xmlns="http://www.w3.org/2000/svg" viewBox="0 0 600 600"><defs><style>.cls-1{fill:#f16667;}</style></defs><title>landing-page-graphics</title><path class="cls-1" d="M338,278.28A16.28,16.28,0,0,0,321.72,262H278.28A16.28,16.28,0,0,0,262,278.28v43.44A16.28,16.28,0,0,0,278.28,338h43.44A16.28,16.28,0,0,0,338,321.72V278.28Zm-10,43.44a6.28,6.28,0,0,1-6.28,6.28H278.28a6.28,6.28,0,0,1-6.28-6.28V278.28a6.28,6.28,0,0,1,6.28-6.28h43.44a6.28,6.28,0,0,1,6.28,6.28v43.44Z"/><path class="cls-1" d="M395.67,272a5,5,0,0,0,0-10H372V244.28A16.3,16.3,0,0,0,355.72,228H338V204.33a5,5,0,0,0-10,0V228H305V204.33a5,5,0,0,0-10,0V228H272V204.33a5,5,0,0,0-10,0V228H244.28A16.3,16.3,0,0,0,228,244.28V262H204.33a5,5,0,0,0,0,10H228v23H204.33a5,5,0,0,0,0,10H228v23H204.33a5,5,0,0,0,0,10H228v17.72A16.3,16.3,0,0,0,244.28,372H262v23.67a5,5,0,0,0,10,0V372h23v23.67a5,5,0,0,0,10,0V372h23v23.67a5,5,0,0,0,10,0V372h17.72A16.3,16.3,0,0,0,372,355.72V338h23.67a5,5,0,0,0,0-10H372V305h23.67a5,5,0,0,0,0-10H372V272h23.67ZM362,355.72a6.29,6.29,0,0,1-6.28,6.28H244.28a6.29,6.29,0,0,1-6.28-6.28V244.28a6.29,6.29,0,0,1,6.28-6.28H355.72a6.29,6.29,0,0,1,6.28,6.28V355.72Z"/></svg>